<svg width="241" height="224" viewBox="0 0 241 224" fill="none" xmlns="http://www.w3.org/2000/svg">
<path d="M130.377 15.32C130.285 14.832 130.222 14.327 130.188 13.816C129.695 6.733 135.027 0.590998 142.11 0.0919982C149.199 -0.402002 155.34 4.937 155.834 12.02C156.328 19.103 150.995 25.245 143.913 25.744C143.465 25.778 143.022 25.784 142.587 25.767C142.3 25.841 142.128 25.876 141.881 26.094C141.152 27.23 143.735 27.018 141.979 31.983C141.979 31.983 141.967 32.528 141.772 33.073C141.634 34.979 140.9 40.627 140.796 43.635C141.169 44.071 141.273 44.283 141.233 45.34C141.066 46.769 140.739 50.271 140.211 52.515C139.764 54.438 138.978 54.805 138.346 55.276C137.456 59.26 137.221 62.56 134.937 67.399C134.73 71.067 134.472 72.066 133.703 73.857C133.617 79.258 133.99 80.062 130.346 88.614C129.405 92.614 130.3 95.381 131.293 99.537C132.309 103.808 135.127 105.593 135.546 109.967C136.533 120.267 136.286 127.281 134.076 135.357L136.005 139.926C138.399 141.023 144.339 144.025 141.045 148.777C145.683 151.216 152.691 153.805 158.471 158.748C160.796 160.683 163.252 162.795 165.456 165.274C169.652 165.928 169.204 166.261 172.315 168.172C181.459 173.779 196.124 184.903 204.625 192.778C206.089 193.633 206.686 194.248 207.868 194.868C208.052 195.223 208.103 195.304 208.063 195.401C207.656 196.429 207.672 196.458 207.305 197.278C207.764 197.784 208.619 198.259 209.13 198.702C209.607 198.851 209.607 198.622 210.428 198.421C211.495 199.42 212.816 200.224 213.291 200.178C214.738 199.81 214.491 200.109 215.714 198.742C216.155 198.289 216.891 198.748 216.891 198.748C217.35 198.209 218.337 197.135 219.652 196.36C220.702 195.74 222.706 195.672 222.706 195.672C223.377 195.678 223.251 196.366 223.193 196.59C222.436 196.981 220.829 197.411 219.927 198.076C217.964 200.108 216.426 202.847 216.426 202.847C220.38 202.307 222.809 203.288 226.103 202.91C227.9 202.807 229.226 202.922 231.114 201.556C231.114 201.556 232.928 200.265 234.552 199.581C236.131 198.893 237.629 199.26 239.018 200.27C239.999 201.377 240.59 201.383 239.098 202.945C238.559 203.553 237.778 204.23 236.785 205.212C235.04 206.935 232.692 209.235 230.259 211.136C227.796 213.059 225.001 214.786 223.256 215.578C218.854 218.741 219.893 217.914 216.432 221.049C215.995 221.439 214.836 222.139 214.274 222.512C212.908 223.408 212.483 222.661 211.593 221.02C211.593 221.02 211.185 220.406 210.514 219.097C209.779 217.668 209.228 216.033 209.451 216.061C208.631 215.957 204.939 211.629 204.929 210.7C204.148 210.522 200.819 207.297 200.699 206.682L197.749 204.317C194.374 205.017 193.599 202.922 184.685 196.597C183.669 196.579 182.097 196.029 179.846 194.359C175.823 191.138 166.174 183.849 164.538 183.016C162.781 182.121 160.681 181.278 159.394 180.215C157.466 179.86 156.41 179.658 155.446 179.389C154.459 179.119 153.563 178.769 151.066 178.436C147.003 177.931 142.789 176.249 138.777 174.241C136.878 173.34 135.224 172.881 133.589 172.179C129.921 170.63 126.776 169.235 124.339 168.672C123.409 168.58 118.989 167.254 116.671 165.9C115.867 165.487 115.402 165.091 114.874 164.97C113.657 164.689 112.876 165.171 112.326 165.355C109.353 166.905 106.569 168.242 103.997 169.626C101.603 170.906 99.3991 172.237 97.0631 173.581C94.9561 174.798 92.5221 175.945 90.0201 177.14C90.0201 177.14 82.8851 180.716 78.9881 182.105C75.6071 184.866 68.6961 189.641 64.4781 192.006C62.3891 192.999 58.3311 195.57 56.4591 196.145C55.3911 197.005 51.5861 199.72 48.6071 201.959C46.3051 203.681 44.5661 205.133 44.5661 205.133C43.2291 206.332 43.3201 206.901 40.7781 205.821C40.0721 206.401 39.5271 206.762 39.0731 207.095C37.2371 208.427 37.0811 208.106 36.4101 208.071C35.1301 209.179 34.9691 208.605 33.8501 209.88C33.1151 211.017 33.8671 210.746 32.3171 211.298C31.9901 211.424 31.8351 211.819 31.5831 212.038C30.3371 213.065 30.3321 215.964 27.3471 216.171C25.6191 217.404 26.0611 218.892 24.7411 218.828C24.8221 220.108 22.4051 221.974 21.9691 221.968C18.1631 223.282 17.8991 220.482 13.3301 222.571C12.7391 222.841 11.8721 223.588 10.7301 223.805C8.72108 224.184 6.29308 223.787 4.81208 222.64C2.48108 220.843 0.335077 217.376 0.335077 217.376C-0.405923 215.625 0.0250773 214.518 2.33808 212.864C3.30208 212.25 3.48008 211.791 5.09908 211.681C5.90308 211.377 5.68408 211.842 7.12008 211.326C7.95208 211.027 7.95208 211.24 9.62808 211.097C10.0121 210.838 10.5521 210.746 11.2751 210.511C12.6011 210.075 13.8931 209.587 13.8931 209.587C13.8931 209.587 14.2311 209.248 15.5061 209.369C16.5851 208.927 17.6931 208.272 18.2611 208.071C18.1171 206.361 18.3011 206.441 19.0931 205.753C20.0801 204.903 20.2581 205.041 20.9931 205.569C21.3031 205.39 21.4521 205.328 21.4181 205.069C21.2971 204.179 20.5341 203.76 20.7641 201.798C20.4251 201.012 19.9261 200.042 20.0351 199.456C20.1961 198.824 20.3511 198.52 20.7351 198.319C21.1431 198.101 21.2751 198.394 21.4931 198.64C21.8831 199.094 22.1991 200.437 22.1991 200.437C22.3371 201.953 22.8071 203.916 24.3051 202.808C25.1891 201.912 25.3611 199.525 27.1631 200.036L28.4491 201.155C29.5401 200.128 29.5921 200.128 30.2461 199.715C30.2461 199.715 29.2241 198.682 30.1201 197.878C30.7341 197.332 31.4741 196.942 32.7891 195.484C36.3991 191.495 38.2531 189.732 42.1571 186.518C49.9461 180.112 58.8081 175.618 64.4391 173.385C66.2751 171.054 68.0611 169.505 72.1361 169.114C76.9801 160.934 86.2561 153.628 88.3861 152.463C90.1191 149.323 90.8711 149.656 93.1381 149.025C94.9341 147.585 95.3421 147.585 96.1461 146.081C96.9271 142.976 94.3441 134.682 100.938 134.263C102.339 132.283 101.989 132.759 103.55 130.888C102.494 128.282 102.058 126.101 101.771 124.224C101.719 124.006 99.1541 122.198 99.8821 119.838C98.7921 118.541 96.7541 115.514 96.1171 114.096C95.8251 114.102 95.5831 113.992 95.2621 113.947C94.9291 113.895 94.5151 113.913 94.0511 113.873C93.0241 116.524 91.9051 116.72 90.0791 117.305C86.8191 124.253 85.6711 127.193 76.4471 132.938C72.7851 137.037 71.6141 141.605 71.6311 141.537C71.0001 142.891 71.2231 144.786 71.5561 145.802C71.0741 147.306 71.2001 147.455 71.2001 147.455C71.4011 148.023 71.9241 148.775 72.5661 148.935C73.6741 149.228 74.7821 149.182 74.7181 150.416C74.5691 151.96 72.5431 151.707 71.5841 151.535C67.8931 150.949 69.0591 148.544 66.6991 149.347C64.8911 150.53 64.2141 154.02 61.2631 153.566C60.8731 153.308 60.9931 152.545 61.2571 151.994C61.6711 151.133 62.4051 150.421 61.9691 150.099C60.0521 150.702 56.2061 151.976 56.2061 151.976C54.3981 152.47 52.4171 151.569 54.1971 150.38C55.0241 150.059 56.2061 149.657 57.6641 148.722C57.6641 148.722 58.4151 147.7 56.9751 148.211C55.4021 148.774 53.0831 149.123 51.4191 148.94C51.4191 148.94 47.9691 148.487 47.5271 148.216C47.0791 147.946 46.6721 146.879 47.7511 146.885C49.1171 146.897 52.5381 146.494 55.1901 145.788C56.4701 145.289 58.9041 143.849 60.2701 143.171C60.2701 143.171 61.7511 141.013 62.5661 140.588C63.9261 139.021 65.0741 138.097 66.2791 136.495C67.4561 134.067 68.6731 130.222 72.5701 124.269C74.3721 121.525 76.6111 118.329 79.4291 115.472C79.4291 115.472 80.1581 110.898 83.8261 107.643C84.6361 105.737 85.8641 103.493 87.0751 101.415C87.5461 100.617 87.9931 99.923 88.4411 99.165C89.5781 97.38 90.7721 94.057 95.2031 93.534C95.2031 93.534 97.0971 92.134 97.8261 91.14C98.9631 90.17 98.7041 88.661 99.6281 87.598C98.2161 86.221 94.6061 83.632 94.2551 80.033C93.8821 76.216 95.2421 73.076 97.5501 70.752C100.11 68.192 102.808 66.912 106.085 67.107C110.177 67.715 110.952 69.07 112.255 70.413C113.506 71.687 113.971 70.867 114.499 72.359C117.932 73.272 117.742 72.87 117.713 75.396C118.241 76.107 119.125 76.768 119.113 78.243C120.267 75.849 120.496 75.408 123.579 72.773C124.308 70.632 124.802 68.526 125.444 66.385C126.044 64.405 126.791 62.367 127.37 60.834C126.756 56.506 128.018 55.789 129.7 51.995C129.402 51.473 129.466 51.324 129.592 50.468C130.246 47.96 131.268 44.642 131.876 42.478C131.876 42.478 132.077 41.617 132.967 41.554C133.736 38.816 134.89 33.719 135.085 32.68C135.877 29.816 135.366 28.897 134.758 27.284C134.563 26.756 134.654 26.004 134.316 25.418C133.358 23.748 132.325 21.578 131.625 20.028C131.171 19.041 130.453 15.321 130.453 15.321C129.843 13.42 130.377 15.32 130.377 15.32Z" fill="white"/>
</svg>
