# Blender 3.4.1
# www.blender.org
mtllib nike.mtl
o Nike
v 0.919332 0.317517 0.000000
v 0.910679 0.312459 0.000000
v 0.587393 0.227670 0.000000
v 0.539042 0.147939 0.000000
v -0.046902 0.054120 0.000000
v -0.723418 0.221177 0.000000
v -0.661355 0.292617 0.000000
v -0.668936 0.231641 0.000000
v -0.683720 0.183652 0.000000
v -0.683720 0.183652 0.144939
v -0.668936 0.231641 0.144939
v -0.110037 -0.139634 -0.000000
v -0.665544 0.013392 0.000000
v -0.866110 -0.010276 -0.000000
v -0.677951 0.033916 0.000000
v -0.650166 -0.004682 -0.000000
v -0.880358 -0.048699 -0.000000
v -0.851776 -0.263571 -0.000000
v -0.835978 -0.280340 -0.000000
v -0.835978 -0.280340 0.144939
v -0.851776 -0.263571 0.144939
v -0.692749 0.134228 0.000000
v -0.693865 0.107747 0.000000
v -0.790525 0.128807 0.000000
v -0.756015 0.177970 0.000000
v -0.692024 0.081543 0.000000
v -0.817904 -0.294327 -0.000000
v -0.817904 -0.294327 0.144939
v -0.470848 -0.294414 -0.000000
v -0.499720 -0.052308 -0.000000
v -0.416728 -0.274934 -0.000000
v -0.443962 -0.050323 -0.000000
v -0.396886 -0.040771 -0.000000
v -0.644035 0.290820 0.000000
v -0.443962 -0.050323 0.144939
v -0.499720 -0.052308 0.144939
v -0.416728 -0.274934 0.144939
v -0.396886 -0.040771 0.144939
v -0.110037 -0.139634 0.144939
v -0.629237 0.324735 0.000000
v -0.564957 -0.048960 0.144939
v -0.577291 -0.045453 0.144939
v -0.593524 -0.326532 0.144939
v -0.629237 0.324735 0.144939
v -0.661355 0.292617 0.144939
v -0.644035 0.290820 0.144939
v -0.797380 -0.306676 -0.000000
v -0.797380 -0.306676 0.144939
v -0.630237 -0.330634 0.144939
v -0.847529 0.031394 0.000000
v -0.686604 0.057062 0.000000
v -0.614816 -0.029944 0.144939
v -0.550129 -0.051047 0.144939
v -0.470848 -0.294414 0.144939
v -0.773379 -0.316691 -0.000000
v -0.773379 -0.316691 0.144939
v -0.550129 -0.051047 -0.000000
v -0.821875 0.078078 0.000000
v -0.692024 0.081543 0.144939
v -0.821875 0.078078 0.144939
v -0.686604 0.057062 0.144939
v -0.632484 -0.018799 0.144939
v -0.533983 -0.313894 -0.000000
v -0.692749 0.134228 0.144939
v -0.756015 0.177970 0.144939
v -0.747232 -0.325083 -0.000000
v -0.747232 -0.325083 0.144939
v -0.533983 -0.313894 0.144939
v -0.723418 0.221177 0.144939
v -0.790525 0.128807 0.144939
v -0.693865 0.107747 0.144939
v -0.715476 -0.330721 -0.000000
v -0.715476 -0.330721 0.144939
v -0.046902 0.054120 0.144939
v 0.587393 0.227670 0.144939
v -0.866110 -0.010276 0.144939
v -0.847529 0.031394 0.144939
v -0.677951 0.033916 0.144939
v -0.665544 0.013392 0.144939
v -0.650166 -0.004682 0.144939
v -0.893707 -0.124473 0.144939
v -0.672907 -0.332301 0.144939
v -0.880358 -0.048699 0.144939
v -0.564957 -0.048960 -0.000000
v -0.577291 -0.045453 -0.000000
v -0.614816 -0.029944 -0.000000
v -0.632484 -0.018799 -0.000000
v -0.889880 -0.085514 0.144939
v -0.893895 -0.162404 0.144939
v -0.887576 -0.194116 0.144939
v -0.878111 -0.221394 0.144939
v -0.865936 -0.244628 0.144939
v -0.593524 -0.326532 -0.000000
v 0.539042 0.147939 0.144939
v -0.889880 -0.085514 -0.000000
v -0.893707 -0.124473 -0.000000
v 0.910679 0.312459 0.144939
v -0.893895 -0.162404 -0.000000
v 0.919332 0.317517 0.144939
v -0.887576 -0.194116 -0.000000
v -0.878111 -0.221394 -0.000000
v -0.865936 -0.244628 -0.000000
v -0.672907 -0.332301 -0.000000
v -0.630237 -0.330634 -0.000000
vn -0.0000 -0.0000 -1.0000
vn 0.9557 -0.2944 -0.0000
vn -0.7279 -0.6857 -0.0000
vn -0.6120 -0.7909 -0.0000
vn -0.0000 -0.0000 1.0000
vn -0.5156 -0.8568 -0.0000
vn -0.5156 -0.8569 -0.0000
vn -0.3851 -0.9229 -0.0000
vn -0.3056 -0.9522 -0.0000
vn -0.1748 -0.9846 -0.0000
vn -0.2639 0.9645 -0.0000
vn -0.2617 0.9652 -0.0000
vn -0.9133 0.4073 -0.0000
vn -0.1988 0.9800 -0.0000
vn -0.9376 0.3477 -0.0000
vn -0.0356 0.9994 -0.0000
vn 0.0250 0.9997 -0.0000
vn 0.3387 -0.9409 -0.0000
vn 0.1394 0.9902 -0.0000
vn 0.4036 -0.9149 -0.0000
vn 0.2735 0.9619 -0.0000
vn 0.3820 0.9242 -0.0000
vn 0.9217 -0.3878 -0.0000
vn 0.5335 0.8458 -0.0000
vn 0.6239 0.7815 -0.0000
vn 0.9166 -0.3999 -0.0000
vn 0.4051 -0.9143 -0.0000
vn -0.9681 0.2504 -0.0000
vn -0.9952 0.0977 -0.0000
vn 0.4048 -0.9144 -0.0000
vn -1.0000 0.0050 -0.0000
vn 0.5047 -0.8633 -0.0000
vn -0.9807 -0.1954 -0.0000
vn -0.2613 0.9653 -0.0000
vn -0.9447 -0.3278 -0.0000
vn -0.8858 -0.4642 -0.0000
vn -0.8858 -0.4641 -0.0000
vn 0.2948 -0.9556 -0.0000
vn -0.8010 -0.5987 -0.0000
vn -0.7549 0.6558 -0.0000
vn 0.7616 0.6480 -0.0000
vn -0.7983 0.6023 -0.0000
vn -0.8185 0.5745 -0.0000
vn -0.7071 0.7071 -0.0000
vn -0.8507 0.5257 -0.0000
vn -0.8764 0.4816 -0.0000
vn 0.8558 0.5173 -0.0000
vn 0.9367 0.3502 -0.0000
vn -0.0371 -0.9993 -0.0000
vn 0.0390 -0.9992 -0.0000
vn 0.9764 0.2162 -0.0000
vn 0.9763 0.2162 -0.0000
vn 0.1110 -0.9938 -0.0000
vn 0.9975 0.0701 -0.0000
vn 0.2076 -0.9782 -0.0000
vn 0.9991 -0.0421 -0.0000
vn 0.9837 -0.1797 -0.0000
s 0
f 1//1 2//1 3//1
f 2//1 4//1 3//1
f 3//1 4//1 5//1
f 6//1 7//1 8//1
f 6//1 8//1 9//1
f 10//2 9//2 8//2
f 10//2 8//2 11//2
f 4//1 12//1 5//1
f 13//1 14//1 15//1
f 16//1 17//1 13//1
f 18//3 19//3 20//3
f 18//3 20//3 21//3
f 22//1 23//1 24//1
f 24//1 25//1 22//1
f 9//1 22//1 25//1
f 6//1 9//1 25//1
f 23//1 26//1 24//1
f 27//4 28//4 20//4
f 27//4 20//4 19//4
f 29//1 30//1 31//1
f 32//1 33//1 31//1
f 12//1 31//1 33//1
f 33//1 5//1 12//1
f 34//1 8//1 7//1
f 35//5 36//5 37//5
f 38//5 35//5 37//5
f 38//5 37//5 39//5
f 7//1 40//1 34//1
f 41//5 42//5 43//5
f 44//5 45//5 46//5
f 47//6 48//6 28//6
f 47//7 28//7 27//7
f 49//5 43//5 42//5
f 15//1 50//1 51//1
f 52//5 49//5 42//5
f 53//5 54//5 36//5
f 55//8 56//8 48//8
f 55//8 48//8 47//8
f 57//1 30//1 29//1
f 32//1 31//1 30//1
f 50//1 58//1 51//1
f 59//5 60//5 61//5
f 28//5 48//5 62//5
f 37//5 36//5 54//5
f 29//1 63//1 57//1
f 64//5 10//5 65//5
f 66//9 67//9 56//9
f 66//9 56//9 55//9
f 54//5 53//5 68//5
f 26//1 51//1 58//1
f 58//1 24//1 26//1
f 69//5 65//5 10//5
f 64//5 70//5 71//5
f 71//5 70//5 59//5
f 72//10 73//10 67//10
f 72//10 67//10 66//10
f 74//11 75//11 5//11
f 3//11 5//11 75//11
f 10//5 11//5 69//5
f 45//5 69//5 11//5
f 45//5 11//5 46//5
f 74//12 5//12 33//12
f 74//12 33//12 38//12
f 50//13 14//13 76//13
f 77//5 76//5 78//5
f 78//5 61//5 77//5
f 79//5 78//5 76//5
f 80//5 81//5 62//5
f 82//5 52//5 73//5
f 49//5 52//5 82//5
f 53//5 41//5 43//5
f 68//5 53//5 43//5
f 38//14 33//14 32//14
f 38//14 32//14 35//14
f 14//15 17//15 83//15
f 14//15 83//15 76//15
f 32//16 30//16 36//16
f 35//16 32//16 36//16
f 36//17 30//17 57//17
f 36//17 57//17 53//17
f 65//5 70//5 64//5
f 60//5 59//5 70//5
f 77//5 61//5 60//5
f 31//18 37//18 54//18
f 31//18 54//18 29//18
f 53//19 57//19 84//19
f 53//19 84//19 41//19
f 39//20 37//20 31//20
f 39//20 31//20 12//20
f 41//21 84//21 85//21
f 41//21 85//21 42//21
f 42//22 85//22 86//22
f 42//22 86//22 52//22
f 46//23 11//23 8//23
f 46//23 8//23 34//23
f 52//24 86//24 87//24
f 52//24 87//24 62//24
f 62//25 87//25 16//25
f 62//25 16//25 80//25
f 46//26 34//26 40//26
f 46//26 40//26 44//26
f 73//5 52//5 67//5
f 76//5 83//5 79//5
f 80//5 79//5 83//5
f 83//5 88//5 80//5
f 88//5 81//5 80//5
f 89//5 62//5 81//5
f 90//5 62//5 89//5
f 90//5 91//5 62//5
f 91//5 92//5 62//5
f 92//5 21//5 62//5
f 21//5 20//5 62//5
f 20//5 28//5 62//5
f 48//5 56//5 62//5
f 52//5 62//5 56//5
f 67//5 52//5 56//5
f 84//1 57//1 93//1
f 63//1 93//1 57//1
f 94//27 39//27 4//27
f 83//28 17//28 95//28
f 83//28 95//28 88//28
f 95//29 96//29 81//29
f 95//29 81//29 88//29
f 94//30 4//30 2//30
f 94//30 2//30 97//30
f 85//1 84//1 93//1
f 96//31 98//31 89//31
f 96//31 89//31 81//31
f 2//32 1//32 99//32
f 2//32 99//32 97//32
f 89//33 98//33 100//33
f 89//33 100//33 90//33
f 1//34 3//34 75//34
f 1//34 75//34 99//34
f 100//35 101//35 91//35
f 100//35 91//35 90//35
f 101//36 102//36 92//36
f 101//37 92//37 91//37
f 103//1 72//1 86//1
f 72//1 66//1 86//1
f 104//1 103//1 86//1
f 87//1 86//1 55//1
f 66//1 55//1 86//1
f 86//1 85//1 104//1
f 93//1 104//1 85//1
f 29//38 54//38 68//38
f 102//39 18//39 21//39
f 102//39 21//39 92//39
f 39//27 12//27 4//27
f 6//40 69//40 7//40
f 45//40 7//40 69//40
f 13//41 79//41 80//41
f 13//41 80//41 16//41
f 55//1 47//1 87//1
f 47//1 27//1 87//1
f 27//1 19//1 87//1
f 19//1 18//1 87//1
f 18//1 102//1 87//1
f 102//1 101//1 87//1
f 101//1 100//1 87//1
f 100//1 98//1 87//1
f 98//1 96//1 87//1
f 16//1 87//1 96//1
f 95//1 16//1 96//1
f 17//1 16//1 95//1
f 14//1 13//1 17//1
f 50//1 15//1 14//1
f 77//13 50//13 76//13
f 74//5 94//5 75//5
f 38//5 39//5 74//5
f 94//5 74//5 39//5
f 97//5 75//5 94//5
f 99//5 75//5 97//5
f 6//42 25//42 65//42
f 6//42 65//42 69//42
f 25//43 24//43 70//43
f 25//43 70//43 65//43
f 40//44 7//44 45//44
f 40//44 45//44 44//44
f 24//45 58//45 60//45
f 24//45 60//45 70//45
f 58//46 50//46 77//46
f 58//46 77//46 60//46
f 78//47 79//47 13//47
f 78//47 13//47 15//47
f 61//48 78//48 15//48
f 61//48 15//48 51//48
f 73//49 72//49 82//49
f 103//49 82//49 72//49
f 104//50 49//50 82//50
f 104//50 82//50 103//50
f 59//51 61//51 51//51
f 59//52 51//52 26//52
f 93//53 43//53 49//53
f 93//53 49//53 104//53
f 71//54 59//54 26//54
f 71//54 26//54 23//54
f 63//55 68//55 43//55
f 63//55 43//55 93//55
f 64//56 71//56 23//56
f 64//56 23//56 22//56
f 68//38 63//38 29//38
f 10//57 64//57 22//57
f 10//57 22//57 9//57
